<svg width="200" height="90" viewBox="0 0 200 90" fill="none" xmlns="http://www.w3.org/2000/svg">
<path d="M31.4532 2.25374C18.0847 7.04411 9.84079 14.3968 4.04778 26.5398C-6.20139 48.0408 3.71357 74.8891 25.883 85.5839C31.8988 88.5918 33.6812 88.8146 44.2646 88.926C63.8717 88.926 59.7498 91.7111 115.897 41.6908C128.375 30.6618 140.183 20.9696 143.191 19.6328C146.868 17.8503 150.544 17.0705 155.223 17.0705C177.392 17.0705 190.984 41.9136 178.729 60.1838C173.605 67.7593 166.252 71.9926 157.228 72.5497C147.648 73.2181 142.3 71.1014 132.831 62.8575L125.255 56.2847L119.24 61.4093C116.009 64.1944 113.447 66.9795 113.558 67.4251C114.338 69.6532 131.048 82.9102 136.507 85.6953C144.974 90.0401 157.897 90.7085 168.703 87.4778C188.31 81.462 202.347 60.0724 199.673 40.2425C196.331 15.5108 176.167 -1.19979 151.769 0.694082C138.067 1.69672 132.719 4.92743 107.765 26.9854C95.8447 37.5688 80.1367 51.4943 72.7841 57.9557C65.5428 64.4172 57.9673 70.3216 55.8506 71.2128C53.8454 72.104 48.9436 72.7725 45.1559 72.7725C29.3365 72.7725 17.9733 62.3005 16.6364 46.5925C15.411 30.4389 27.9996 17.0705 44.8216 17.0705C53.2884 17.0705 58.4129 19.41 67.6595 27.431L74.7893 33.6697L80.5823 28.4337C83.7017 25.5372 86.3753 22.8635 86.4868 22.5293C86.7096 20.7468 69.7762 7.60113 63.4261 4.59322C54.1796 0.137062 40.1427 -0.865574 31.4532 2.25374Z" fill="#6C63FF"/>
</svg>
